#!OML:ASF I:\Actors\actors\Patient Classification 1\Patient 1\Session 1\Subject1.ASF
:FULLY-SPECIFIED
:DEGREES
720
root 0.682978 17.5273 9.16728 11.2738 -4.73054 -10.0945
lowerback 0.0810882 3.65579 5.31062
upperback -7.0884 5.19548 1.00682
thorax -7.0928 2.28766 -2.20717
lowerneck -18.4135 -3.78977 -1.13707
upperneck 27.7531 -7.46092 7.47104
head 12.6586 -2.43791 1.82951
rclavicle 2.4699e-014 1.59028e-015
rhumerus 40.5166 61.6712 -37.8313
rradius 74.0627
rwrist 7.65954
rhand -10.3209 -47.8046
rfingers 7.12502
rthumb 15.6746 -437.19
lclavicle 2.4699e-014 1.59028e-015
lhumerus 28.4513 -51.0108 34.7664
lradius 66.5543
lwrist 60.0758
lhand -44.2391 17.986
lfingers 7.12502
lthumb -17.0514 47.2577
rfemur -7.01187 25.05 24.9574
rtibia 1.73726
rfoot -9.95396 -21.7452
rtoes 0.61506
lfemur 7.7279 -53.8657 -13.7463
ltibia -4.80096
lfoot -41.0392 60.8986
ltoes 22.6533
721
root 0.684912 17.5253 9.1669 11.1366 -4.48464 -10.0186
lowerback 0.00582997 3.57529 5.19743
upperback -7.1182 5.07838 0.996454
thorax -7.09725 2.23585 -2.14607
lowerneck -18.4542 -3.80767 -1.06185
upperneck 28.2173 -7.53136 7.38537
head 12.8531 -2.45589 1.7787
rclavicle -2.43511e-015 -7.15625e-015
rhumerus 39.6314 61.3111 -38.1237
rradius 74.9373
rwrist 12.1359
rhand -12.3785 -47.6609
rfingers 7.12502
rthumb 13.6923 -437.19
lclavicle -2.43511e-015 -7.15625e-015
lhumerus 27.3464 -50.7477 37.1492
lradius 65.7444
lwrist 61.8294
lhand -42.9184 18.0148
lfingers 7.12502
lthumb -15.7798 47.3916
rfemur -6.83893 25.0279 24.9561
rtibia 1.73914
rfoot -10.0033 -21.9884
rtoes 0.30871
lfemur 7.60012 -53.4347 -13.672
ltibia -4.83583
lfoot -39.6295 60.5869
ltoes 22.0156
722
root 0.688647 17.5241 9.16607 11.0146 -4.2006 -9.99002
lowerback -0.0422922 3.49915 5.17614
upperback -7.1574 4.97404 0.997215
thorax -7.12079 2.18436 -2.12677
lowerneck -18.4966 -3.83398 -1.0784
upperneck 28.6189 -7.61465 7.41317
head 13.0348 -2.47599 1.78415
rclavicle -1.64991e-014 -3.73715e-014
rhumerus 38.4854 60.9138 -38.6969
rradius 75.7283
rwrist 16.3492
rhand -14.3466 -47.8299
rfingers 7.12502
rthumb 11.7949 -437.478
lclavicle -1.64991e-014 -3.73715e-014
lhumerus 26.3696 -50.714 39.3491
lradius 64.8663
lwrist 60.9731
lhand -41.3795 17.7796
lfingers 7.12502
lthumb -14.2973 47.2674
rfemur -6.68046 24.9729 25.01
rtibia 1.74972
rfoot -9.99739 -22.2339
rtoes -0.145564
lfemur 7.50106 -53.1595 -13.5905
ltibia -4.8443
lfoot -38.4937 60.3143
ltoes 21.4768
723
root 0.693634 17.5222 9.1634 10.8847 -3.86993 -9.99975
lowerback -0.0943591 3.39463 5.18022
upperback -7.15186 4.83386 1.05857
thorax -7.09957 2.11767 -2.05468
lowerneck -18.5971 -3.82551 -1.03571
upperneck 28.9353 -7.60947 7.29013
head 13.1787 -2.47224 1.7336
rclavicle -3.20043e-014 -4.21423e-014
rhumerus 37.5651 60.4967 -39.1418
rradius 76.3374
rwrist 19.3371
rhand -15.8882 -48.1419
rfingers 7.12502
rthumb 10.308 -437.869
lclavicle -3.20043e-014 -4.21423e-014
lhumerus 25.654 -50.9761 41.1263
lradius 64.1521
lwrist 58.6896
lhand -40.3559 16.9345
lfingers 7.12502
lthumb -13.3109 46.4894
rfemur -6.5296 24.8918 25.1033
rtibia 1.77956
rfoot -10.0414 -22.4916
rtoes -0.348928
lfemur 7.42285 -52.9578 -13.484
ltibia -4.85746
lfoot -37.2258 60.1023
ltoes 20.762
724
root 0.699363 17.5189 9.16019 10.7556 -3.5589 -10.0057
lowerback -0.179596 3.25699 5.16158
upperback -7.10888 4.64612 1.15518
thorax -7.02603 2.03208 -1.92781
lowerneck -18.6343 -3.78234 -1.00548
upperneck 29.1022 -7.53614 7.17642
head 13.2444 -2.44575 1.6988
rclavicle -3.77691e-014 -2.46493e-014
rhumerus 36.989 60.1017 -39.3945
rradius 76.7381
rwrist 21.1525
rhand -16.7688 -48.5315
rfingers 7.12502
rthumb 9.45843 -438.299
lclavicle -3.77691e-014 -2.46493e-014
lhumerus 24.9271 -51.3692 42.6237
lradius 63.8327
lwrist 56.7179
lhand -39.7866 15.7969
lfingers 7.12502
lthumb -12.762 45.3868
rfemur -6.40547 24.76 25.1685
rtibia 1.81946
rfoot -10.1128 -22.6746
rtoes -0.420932
lfemur 7.30193 -52.7059 -13.3573
ltibia -4.85317
lfoot -35.7637 59.9228
ltoes 19.755
725
root 0.704473 17.5167 9.15683 10.6459 -3.37195 -9.99741
lowerback -0.235132 3.14788 5.12992
upperback -7.07971 4.4972 1.22438
thorax -6.97997 1.96437 -1.82688
lowerneck -18.6039 -3.75918 -1.11404
upperneck 29.1932 -7.49534 7.23813
head 13.2815 -2.42977 1.75054
rclavicle 3.67752e-015 1.27222e-014
rhumerus 36.389 59.7315 -39.8019
rradius 76.9052
rwrist 22.4973
rhand -17.1787 -49.1443
rfingers 7.12502
rthumb 9.06291 -438.93
lclavicle 3.67752e-015 1.27222e-014
lhumerus 24.0029 -51.8233 43.9849
lradius 64.0039
lwrist 55.9733
lhand -38.9483 14.4376
lfingers 7.12502
lthumb -11.9538 44.0763
rfemur -6.32716 24.6008 25.1892
rtibia 1.86621
rfoot -10.1423 -22.7026
rtoes -0.310441
lfemur 7.25783 -52.5531 -13.3353
ltibia -4.82387
lfoot -35.1904 59.7229
ltoes 19.364
726
root 0.708226 17.5161 9.15321 10.5553 -3.27833 -10.0283
lowerback -0.24869 3.09707 5.16204
upperback -7.07979 4.42983 1.23599
thorax -6.97551 1.92952 -1.8285
lowerneck -18.5454 -3.76512 -1.18677
upperneck 29.2485 -7.52937 7.37126
head 13.3048 -2.43469 1.81118
rclavicle 2.73826e-014 0
rhumerus 35.5656 59.3068 -40.5433
rradius 76.7303
rwrist 23.6702
rhand -17.1192 -49.5231
rfingers 7.12502
rthumb 9.12031 -439.306
lclavicle 2.73826e-014 0
lhumerus 23.1082 -52.4312 45.0709
lradius 64.5837
lwrist 56.4694
lhand -37.7042 13.2908
lfingers 7.12502
lthumb -10.754 42.9955
rfemur -6.26942 24.5185 25.249
rtibia 1.91321
rfoot -10.1479 -22.7048
rtoes -0.183225
lfemur 7.32786 -52.5487 -13.3655
ltibia -4.81043
lfoot -35.2724 59.6011
ltoes 19.5607
727
root 0.711177 17.5151 9.14355 10.4377 -3.36412 -9.90807
lowerback -0.101308 3.0754 5.00431
upperback -7.1136 4.40356 1.18225
thorax -7.10468 1.91971 -1.80663
lowerneck -18.4325 -3.7804 -1.17237
upperneck 29.26 -7.59695 7.48962
head 13.2961 -2.44962 1.84529
rclavicle -2.11209e-014 -7.15625e-015
rhumerus 34.6473 58.8862 -41.5495
rradius 76.1503
rwrist 25.0796
rhand -16.5054 -49.5274
rfingers 7.12502
rthumb 9.71252 -439.283
lclavicle -2.11209e-014 -7.15625e-015
lhumerus 22.2117 -53.1844 45.9115
lradius 65.4521
lwrist 57.3845
lhand -36.4907 12.8495
lfingers 7.12502
lthumb -9.58331 42.6116
rfemur -6.27818 24.565 25.1063
rtibia 2.06225
rfoot -10.1608 -22.7012
rtoes -0.319471
lfemur 7.50244 -52.64 -13.676
ltibia -4.77041
lfoot -35.4392 59.6973
ltoes 19.67
728
root 0.713249 17.5139 9.12018 10.2458 -3.73501 -9.40965
lowerback 0.396462 3.11056 4.40583
upperback -7.20173 4.45289 1.02774
thorax -7.51218 1.96261 -1.67477
lowerneck -18.3318 -3.84383 -1.19535
upperneck 29.3423 -7.71551 7.56228
head 13.3217 -2.49486 1.86013
rclavicle 7.95139e-015 3.97569e-015
rhumerus 33.5424 58.5124 -42.8569
rradius 75.3172
rwrist 26.809
rhand -15.069 -49.7048
rfingers 7.12502
rthumb 11.0982 -439.391
lclavicle 7.95139e-015 3.97569e-015
lhumerus 21.2413 -54.0595 46.6681
lradius 66.5247
lwrist 58.3009
lhand -35.3398 12.9575
lfingers 7.12502
lthumb -8.47271 42.7676
rfemur -6.40637 24.8149 24.4587
rtibia 2.35593
rfoot -10.2117 -22.6826
rtoes -0.389093
lfemur 7.65303 -52.5728 -14.4289
ltibia -4.64186
lfoot -35.86 59.7231
ltoes 19.9908
729
root 0.716818 17.5177 9.13775 10.4286 -3.50727 -9.95555
lowerback -0.125807 3.07777 5.04476
upperback -7.25618 4.41043 1.14058
thorax -7.2388 1.91327 -1.87574
lowerneck -18.3102 -3.95467 -1.27219
upperneck 29.5337 -7.88662 7.5991
head 13.4137 -2.56814 1.86186
rclavicle 8.44835e-016 -3.49861e-014
rhumerus 32.1328 57.9643 -44.574
rradius 74.3905
rwrist 27.2138
rhand -13.1903 -49.2971
rfingers 7.12502
rthumb 12.9097 -438.878
lclavicle 8.44835e-016 -3.49861e-014
lhumerus 20.2003 -54.9884 47.4562
lradius 67.7673
lwrist 59.2182
lhand -34.088 12.8006
lfingers 7.12502
lthumb -7.26449 42.6559
rfemur -6.37963 24.5638 25.1299
rtibia 2.23927
rfoot -10.2073 -22.5244
rtoes -0.486429
lfemur 7.43373 -52.2763 -13.5688
ltibia -4.80163
lfoot -35.3397 59.4927
ltoes 19.823
730
root 0.721898 17.5188 9.14294 10.4809 -3.54078 -10.0899
lowerback -0.323878 3.08545 5.2207
upperback -7.2971 4.41634 1.16384
thorax -7.15889 1.90811 -1.93763
lowerneck -18.2802 -4.04468 -1.30624
upperneck 29.6538 -8.00315 7.54457
head 13.4633 -2.62771 1.82837
rclavicle 3.3048e-014 -9.54166e-015
rhumerus 30.833 57.4624 -46.1846
rradius 73.3497
rwrist 26.8058
rhand -11.6549 -48.3327
rfingers 7.12502
rthumb 14.3896 -437.814
lclavicle 3.3048e-014 -9.54166e-015
lhumerus 19.037 -55.8441 48.3439
lradius 69.046
lwrist 59.7752
lhand -32.6146 12.2559
lfingers 7.12502
lthumb -5.84213 42.1553
rfemur -6.3747 24.4494 25.2763
rtibia 2.20719
rfoot -10.2012 -22.33
rtoes -0.329082
lfemur 7.45197 -52.1679 -13.4508
ltibia -4.82896
lfoot -35.6317 59.3408
ltoes 20.2828
731
root 0.725883 17.5179 9.14171 10.4517 -3.67656 -10.0177
lowerback -0.339184 3.10338 5.15307
upperback -7.32599 4.43646 1.13996
thorax -7.18227 1.92029 -1.92622
lowerneck -18.2364 -4.09665 -1.29242
upperneck 29.664 -8.06368 7.47851
head 13.4571 -2.66291 1.7901
rclavicle -4.25896e-014 -9.54166e-015
rhumerus 29.3608 56.932 -47.981
rradius 72.3621
rwrist 26.0555
rhand -9.92941 -47.0095
rfingers 7.12502
rthumb 16.0516 -436.365
lclavicle -4.25896e-014 -9.54166e-015
lhumerus 17.8848 -56.6295 49.2331
lradius 70.1822
lwrist 59.631
lhand -30.6524 11.8319
lfingers 7.12502
lthumb -3.94751 41.7751
rfemur -6.3517 24.4832 25.1758
rtibia 2.20413
rfoot -10.1926 -22.2294
rtoes -0.0907179
lfemur 7.53924 -52.0544 -13.6448
ltibia -4.80174
lfoot -35.4465 59.3538
ltoes 20.1679
732
root 0.727075 17.516 9.13948 10.4336 -3.82725 -9.98028
lowerback -0.351645 3.13635 5.09029
upperback -7.35337 4.47719 1.11731
thorax -7.20414 1.94253 -1.91729
lowerneck -18.2125 -4.14622 -1.33286
upperneck 29.6495 -8.14937 7.55759
head 13.4578 -2.69561 1.81335
rclavicle 8.94531e-016 -1.82882e-014
rhumerus 27.8484 56.502 -49.7439
rradius 71.5992
rwrist 25.0638
rhand -8.00769 -46.1642
rfingers 7.12502
rthumb 17.9014 -435.36
lclavicle 8.94531e-016 -1.82882e-014
lhumerus 16.7357 -57.3133 50.1604
lradius 71.104
lwrist 58.7264
lhand -28.0091 11.4636
lfingers 7.12502
lthumb -1.39474 41.4388
rfemur -6.35692 24.5139 25.1128
rtibia 2.19799
rfoot -10.1411 -22.1095
rtoes -0.0590998
lfemur 7.57782 -51.9195 -13.7393
ltibia -4.78129
lfoot -35.2067 59.3993
ltoes 19.9344
733
root 0.727791 17.515 9.13624 10.4194 -3.98309 -10.0058
lowerback -0.345814 3.15815 5.06629
upperback -7.36477 4.50723 1.13341
thorax -7.22081 1.95875 -1.88945
lowerneck -18.1352 -4.20544 -1.42821
upperneck 29.4972 -8.24596 7.72572
head 13.3973 -2.73361 1.87757
rclavicle 1.61016e-014 3.33958e-014
rhumerus 26.6472 56.3002 -51.0362
rradius 71.1846
rwrist 23.4118
rhand -6.44421 -45.9518
rfingers 7.12502
rthumb 19.4053 -435.004
lclavicle 1.61016e-014 3.33958e-014
lhumerus 15.5263 -57.7344 51.2331
lradius 71.6885
lwrist 57.3196
lhand -24.4052 10.8234
lfingers 7.12502
lthumb 2.08601 40.7929
rfemur -6.36994 24.5205 25.1229
rtibia 2.19076
rfoot -10.1037 -21.9518
rtoes -0.0436665
lfemur 7.68536 -51.9354 -13.8232
ltibia -4.76435
lfoot -35.6274 59.4403
ltoes 20.2105
